<svg width="181" height="190" viewBox="0 0 181 190" fill="none" xmlns="http://www.w3.org/2000/svg">
<path d="M140.9 127.312C162.73 87.3254 130.874 50.2883 90.1527 46.8125C73.5333 39.7903 48.6869 46.4729 33.0266 72.5451C7.11402 115.685 33.0577 155.206 55.9876 154.671C72.9016 181.967 119.071 167.3 140.9 127.312Z" fill="#FFFF00"/>
<path fill-rule="evenodd" clip-rule="evenodd" d="M120.438 27.9419C120.822 27.5142 121.48 27.4787 121.908 27.8626C130.265 35.3637 129.69 47.3469 125.764 57.3663C125.71 57.5023 125.656 57.6379 125.602 57.7733C130.986 61.7425 135.674 66.4412 139.419 71.7019C150.306 86.997 153.182 107.013 142.003 127.482C130.912 147.791 113.658 161.742 96.9592 167.147C80.457 172.486 64.2732 169.503 55.4266 155.7C43.5333 155.667 31.327 145.55 25.2525 130.323C19.0412 114.756 19.1219 93.6657 32.3067 71.7105C45.5062 49.7306 65.1601 41.0942 81.314 42.8692C83.7689 43.139 86.1429 43.6497 88.3987 44.3913C88.5933 44.2501 88.8374 44.1752 89.096 44.1966C101.876 45.2606 113.941 49.6931 123.857 56.5287C127.646 46.8047 127.868 36.0087 120.517 29.4114C120.09 29.0275 120.054 28.3696 120.438 27.9419ZM123.036 58.4929C114.695 52.6599 104.735 48.5782 94.0798 46.8925C96.9117 48.4947 99.4465 50.5331 101.582 52.9797C106.341 58.4335 109.06 65.8523 108.712 74.8203C111.054 74.0286 113.676 72.0825 116.212 69.2364C118.8 66.3321 121.207 62.5927 123.036 58.4929ZM124.757 59.7385C122.869 63.8676 120.42 67.6428 117.766 70.621C114.641 74.1276 111.106 76.6678 107.756 77.1972C107.442 77.2468 107.122 77.1502 106.889 76.935C106.655 76.7199 106.532 76.4097 106.556 76.0927C107.228 66.9849 104.624 59.6307 100.013 54.3482C95.3956 49.0568 88.7036 45.7749 81.0867 44.9379C65.8651 43.2655 46.9408 51.3844 34.0909 72.7819C21.2268 94.2032 21.2249 114.613 27.1856 129.552C33.1801 144.577 45.088 153.894 55.9706 153.613C56.3408 153.604 56.6886 153.792 56.8829 154.108C64.9825 167.243 80.1781 170.39 96.3178 165.167C112.459 159.943 129.314 146.377 140.178 126.484C150.954 106.751 148.173 87.589 137.723 72.9087C134.202 67.9612 129.805 63.5193 124.757 59.7385Z" fill="black"/>
<path d="M107.911 76.6073C118.355 74.492 144.131 74.3687 161.215 89.3005C151.059 97.6163 125.687 106.42 107.911 76.6073Z" fill="black"/>
<path fill-rule="evenodd" clip-rule="evenodd" d="M109.591 77.3602C118.165 91.0188 128.312 95.7595 137.473 96.213C146.386 96.6535 154.525 93.0406 159.569 89.2677C151.384 82.5132 141.302 79.0821 131.909 77.5889C123.026 76.1768 114.835 76.5113 109.591 77.3602ZM132.236 75.5334C142.242 77.1237 153.164 80.8815 161.901 88.5176C162.131 88.7187 162.261 89.0117 162.256 89.3176C162.251 89.6235 162.111 89.912 161.875 90.1059C156.645 94.3878 147.517 98.7928 137.369 98.2911C127.141 97.7856 116.059 92.3042 107.017 77.1403C106.844 76.8504 106.822 76.4948 106.959 76.1863C107.096 75.8776 107.373 75.6544 107.704 75.5874C113.052 74.5043 122.232 73.9433 132.236 75.5334Z" fill="black"/>
<path d="M81.7911 71.4954C79.6061 75.2799 74.7669 76.5765 70.9824 74.3916C67.1979 72.2066 65.9013 67.3674 68.0862 63.5829C70.2712 59.7984 75.1104 58.5018 78.8949 60.6867C82.6793 62.8717 83.976 67.7109 81.7911 71.4954Z" fill="white"/>
</svg>
