<svg width="22" height="22" viewBox="0 0 22 22" fill="none" xmlns="http://www.w3.org/2000/svg">
<g clip-path="url(#clip0)">
<path d="M6.35933 4.12854C7.00421 4.12854 7.58721 4.18217 8.12139 4.30042C8.64802 4.41867 9.10246 4.60154 9.48196 4.85935C9.85802 5.11716 10.1516 5.45404 10.3626 5.88716C10.5668 6.31685 10.6741 6.85035 10.6741 7.47323C10.6741 8.14973 10.5166 8.71966 10.2086 9.17754C9.89721 9.6361 9.44208 10.0012 8.83021 10.2947C9.66071 10.5347 10.2767 10.9534 10.6851 11.5515C11.0969 12.1565 11.2935 12.8797 11.2935 13.7144C11.2935 14.4019 11.1753 14.989 10.9175 15.4833C10.6699 15.9772 10.3047 16.4027 9.85389 16.7222C9.41321 17.0412 8.89071 17.2701 8.32489 17.4241C7.75395 17.5782 7.16521 17.6566 6.57383 17.6572H-0.000732422V4.1361H6.35864L6.35933 4.12854ZM15.5299 15.2757C15.9307 15.6696 16.511 15.8662 17.2665 15.8662C17.8069 15.8662 18.273 15.7301 18.6663 15.4544C19.0568 15.1897 19.2891 14.8955 19.3826 14.595H21.7531C21.3846 15.7659 20.7934 16.6108 20.0131 17.1161C19.2328 17.6283 18.2875 17.8751 17.1916 17.8751C16.4216 17.8751 15.7375 17.7569 15.1078 17.51C14.5148 17.2763 13.9778 16.9199 13.532 16.4644C13.1058 16.0168 12.7765 15.4757 12.5434 14.8425C12.3103 14.2094 12.1996 13.5143 12.1996 12.7622C12.1996 12.0245 12.3248 11.3514 12.5723 10.7175C12.8025 10.1089 13.1506 9.55167 13.5966 9.07785C14.0511 8.60898 14.5708 8.25766 15.1903 7.98198C15.8063 7.70629 16.4725 7.5846 17.2239 7.5846C18.0585 7.5846 18.7742 7.73516 19.4046 8.06448C20.0037 8.36941 20.5245 8.80813 20.9268 9.34666C21.3317 9.8836 21.6143 10.503 21.7896 11.2015C21.9649 11.889 22.0185 12.6123 21.9828 13.3823H14.9325C14.9325 14.1523 15.1903 14.879 15.5842 15.2729L15.5093 15.3018L15.5299 15.2757ZM6.14071 15.3217C6.43083 15.3217 6.70996 15.2929 6.97121 15.2358C7.21887 15.1872 7.45559 15.0937 7.66971 14.9601C7.86289 14.8384 8.02789 14.659 8.14958 14.4266C8.26783 14.208 8.32146 13.9041 8.32146 13.5459C8.32146 12.8584 8.12071 12.3641 7.73433 12.0637C7.34039 11.7701 6.82821 11.623 6.18746 11.623H2.96858V15.3362H6.14139V15.3073L6.14071 15.3217ZM18.6161 10.1442C18.2902 9.78941 17.7533 9.59966 17.094 9.59966C16.6677 9.59966 16.3136 9.66773 16.027 9.81829C15.7636 9.9469 15.5313 10.1313 15.3463 10.3587C15.1815 10.5612 15.0597 10.7951 14.9881 11.0462C14.9242 11.2584 14.8834 11.4769 14.8665 11.6979H19.2314C19.1668 11.0104 18.9268 10.5058 18.6085 10.1476V10.1586L18.6161 10.1442ZM5.97639 9.57835C6.50302 9.57835 6.93958 9.45666 7.28333 9.20229C7.62708 8.95548 7.79208 8.53954 7.79208 7.97441C7.79208 7.65954 7.72746 7.40173 7.62708 7.20098C7.51563 7.00895 7.35802 6.84779 7.16852 6.7321C6.96384 6.61359 6.73924 6.53344 6.50577 6.4956C6.25197 6.44759 5.99405 6.42479 5.73577 6.42754H2.96102V9.57835H5.97639ZM14.3158 5.03466H19.7869V6.36635H14.3158V5.02366V5.03466Z" fill="#333333"/>
</g>
<defs>
<clipPath id="clip0">
<rect width="22" height="22" fill="white"/>
</clipPath>
</defs>
</svg>
