<svg width="18" height="18" viewBox="0 0 18 18" fill="none" xmlns="http://www.w3.org/2000/svg">
<path d="M9.00083 0C6.55452 0 6.24964 0.0118125 5.29227 0.0523125C4.33095 0.0995625 3.6807 0.248625 3.10695 0.471375C2.50646 0.698074 1.96264 1.05301 1.51339 1.51144C1.05368 1.95964 0.698551 2.50376 0.473328 3.105C0.250578 3.67875 0.101516 4.329 0.0542656 5.29031C0.0109531 6.24825 0.00195312 6.55256 0.00195312 8.99888C0.00195312 11.4452 0.0137656 11.7501 0.0542656 12.7074C0.101516 13.6659 0.250578 14.319 0.473328 14.8927C0.700027 15.4932 1.05496 16.0371 1.51339 16.4863C1.96159 16.946 2.50572 17.3012 3.10695 17.5264C3.6807 17.7463 4.33377 17.8982 5.29227 17.9454C6.2502 17.9887 6.55452 17.9978 9.00083 17.9978C11.4471 17.9978 11.752 17.9859 12.7094 17.9454C13.6679 17.8982 14.321 17.7458 14.8947 17.5264C15.4952 17.2997 16.039 16.9447 16.4883 16.4863C16.9486 16.0386 17.3038 15.4943 17.5283 14.8927C17.7483 14.319 17.9001 13.6659 17.9474 12.7074C17.9907 11.7495 17.9997 11.4452 17.9997 8.99888C17.9997 6.55256 17.9879 6.24769 17.9474 5.29031C17.9001 4.33181 17.7477 3.67538 17.5283 3.105C17.3016 2.50451 16.9467 1.96069 16.4883 1.51144C16.0406 1.05114 15.4963 0.695914 14.8947 0.471375C14.321 0.248625 13.6679 0.0995625 12.7094 0.0523125C11.7515 0.009 11.4471 0 9.00083 0ZM9.00083 1.62C11.4033 1.62 11.6901 1.63181 12.6396 1.67231C13.5155 1.71338 13.9925 1.85963 14.3091 1.98338C14.7007 2.12789 15.055 2.35792 15.3464 2.65669C15.6447 2.94684 15.8738 3.30038 16.0169 3.69112C16.1406 4.00781 16.2869 4.48481 16.328 5.36062C16.3685 6.31012 16.3803 6.59756 16.3803 8.99944C16.3803 11.4013 16.3685 11.6888 16.3246 12.6383C16.2773 13.5141 16.1311 13.9911 16.0079 14.3078C15.8375 14.7302 15.6473 15.0255 15.3335 15.345C15.0411 15.6419 14.687 15.8708 14.2962 16.0155C13.9835 16.1393 13.4997 16.2855 12.6205 16.3266C11.666 16.3671 11.3847 16.3789 8.97608 16.3789C6.56745 16.3789 6.28677 16.3671 5.33108 16.3232C4.45527 16.2759 3.97208 16.1297 3.65539 16.0065C3.22789 15.8361 2.93483 15.6459 2.62095 15.3321C2.30427 15.0154 2.10289 14.7139 1.94764 14.2948C1.82164 13.9821 1.67764 13.4983 1.63095 12.6191C1.59889 11.6758 1.5837 11.3833 1.5837 8.98594C1.5837 6.58969 1.59889 6.29663 1.63095 5.3415C1.67764 4.46231 1.82164 3.97969 1.94764 3.66581C2.10289 3.23775 2.30483 2.94525 2.62095 2.62856C2.93427 2.31525 3.22789 2.11275 3.65539 1.95412C3.97208 1.83094 4.44345 1.68469 5.32264 1.64081C6.2772 1.6065 6.55845 1.59413 8.9637 1.59413L9.00083 1.62ZM9.00083 4.38019C8.39408 4.37997 7.79324 4.49931 7.23264 4.7314C6.67204 4.96349 6.16267 5.30377 5.73363 5.7328C5.3046 6.16184 4.96431 6.67121 4.73223 7.23181C4.50014 7.79241 4.38079 8.39326 4.38102 9C4.38079 9.60674 4.50014 10.2076 4.73223 10.7682C4.96431 11.3288 5.3046 11.8382 5.73363 12.2672C6.16267 12.6962 6.67204 13.0365 7.23264 13.2686C7.79324 13.5007 8.39408 13.62 9.00083 13.6198C9.60757 13.62 10.2084 13.5007 10.769 13.2686C11.3296 13.0365 11.839 12.6962 12.268 12.2672C12.6971 11.8382 13.0373 11.3288 13.2694 10.7682C13.5015 10.2076 13.6209 9.60674 13.6206 9C13.6209 8.39326 13.5015 7.79241 13.2694 7.23181C13.0373 6.67121 12.6971 6.16184 12.268 5.7328C11.839 5.30377 11.3296 4.96349 10.769 4.7314C10.2084 4.49931 9.60757 4.37997 9.00083 4.38019V4.38019ZM9.00083 11.9998C7.34258 11.9998 6.00102 10.6582 6.00102 9C6.00102 7.34175 7.34258 6.00019 9.00083 6.00019C10.6591 6.00019 12.0006 7.34175 12.0006 9C12.0006 10.6582 10.6591 11.9998 9.00083 11.9998ZM14.8868 4.19569C14.8865 4.48237 14.7724 4.75722 14.5696 4.95983C14.3668 5.16244 14.0918 5.27625 13.8051 5.27625C13.6634 5.27625 13.523 5.24833 13.3921 5.19408C13.2611 5.13984 13.1421 5.06033 13.0419 4.96009C12.9416 4.85986 12.8621 4.74086 12.8079 4.6099C12.7536 4.47893 12.7257 4.33857 12.7257 4.19681C12.7257 4.05506 12.7536 3.91469 12.8079 3.78373C12.8621 3.65277 12.9416 3.53377 13.0419 3.43353C13.1421 3.3333 13.2611 3.25379 13.3921 3.19954C13.523 3.1453 13.6634 3.11737 13.8051 3.11737C14.3997 3.11737 14.8868 3.60113 14.8868 4.19569V4.19569Z" fill="#333333"/>
</svg>
