<svg width="40" height="40" viewBox="0 0 40 40" fill="none" xmlns="http://www.w3.org/2000/svg">
<g clip-path="url(#clip0)" filter="url(#filter0_d)">
<rect width="26" height="18" transform="translate(7 11)" fill="white"/>
<path d="M7 11H33V29H7V11Z" fill="#2A73FF"/>
<path d="M6.56641 10L6.00018 10.8242L33.4907 29.7093L34.057 28.885L6.56641 10Z" fill="#FF4F60"/>
<path fill-rule="evenodd" clip-rule="evenodd" d="M6.30859 8.60938L4.60991 11.0821L33.749 31.0996L35.4477 28.6269L6.30859 8.60938ZM6.00038 10.8241L6.56661 9.99985L34.0572 28.8849L33.4909 29.7091L6.00038 10.8241Z" fill="white"/>
<path d="M33.4907 10L34.057 10.8242L6.56639 29.7093L6.00016 28.885L33.4907 10Z" fill="#FF4F60"/>
<path fill-rule="evenodd" clip-rule="evenodd" d="M33.7485 8.60938L35.4472 11.0821L6.30816 31.0996L4.60947 28.6269L33.7485 8.60938ZM34.0567 10.8241L33.4905 9.99985L5.99995 28.8849L6.56618 29.7091L34.0567 10.8241Z" fill="white"/>
<path d="M18 11H22V18H33V22H22V29H18V22H7V18H18V11Z" fill="#FF4F60"/>
<path fill-rule="evenodd" clip-rule="evenodd" d="M17 10H23V17H34V23H23V30H17V23H6V17H17V10ZM18 18H7V22H18V29H22V22H33V18H22V11H18V18Z" fill="white"/>
</g>
<defs>
<filter id="filter0_d" x="3" y="8" width="34" height="26" filterUnits="userSpaceOnUse" color-interpolation-filters="sRGB">
<feFlood flood-opacity="0" result="BackgroundImageFix"/>
<feColorMatrix in="SourceAlpha" type="matrix" values="0 0 0 0 0 0 0 0 0 0 0 0 0 0 0 0 0 0 127 0"/>
<feOffset dy="1"/>
<feGaussianBlur stdDeviation="2"/>
<feColorMatrix type="matrix" values="0 0 0 0 0 0 0 0 0 0 0 0 0 0 0 0 0 0 0.14 0"/>
<feBlend mode="normal" in2="BackgroundImageFix" result="effect1_dropShadow"/>
<feBlend mode="normal" in="SourceGraphic" in2="effect1_dropShadow" result="shape"/>
</filter>
<clipPath id="clip0">
<rect width="26" height="18" fill="white" transform="translate(7 11)"/>
</clipPath>
</defs>
</svg>
