<svg width="26" height="18" viewBox="0 0 26 18" fill="none" xmlns="http://www.w3.org/2000/svg">
<g clip-path="url(#clip0)">
<rect width="26" height="18" fill="white"/>
<path d="M0 0H26V18H0V0Z" fill="#2A73FF"/>
<path d="M-0.433594 -1L-0.999823 -0.175752L26.4907 18.7093L27.057 17.885L-0.433594 -1Z" fill="#FF4F60"/>
<path fill-rule="evenodd" clip-rule="evenodd" d="M-0.691406 -2.39062L-2.39009 0.0821185L26.749 20.0996L28.4477 17.6269L-0.691406 -2.39062ZM-0.999617 -0.1759L-0.433388 -1.00015L27.0572 17.8849L26.4909 18.7091L-0.999617 -0.1759Z" fill="white"/>
<path d="M26.4907 -1L27.057 -0.175752L-0.433615 18.7093L-0.999844 17.885L26.4907 -1Z" fill="#FF4F60"/>
<path fill-rule="evenodd" clip-rule="evenodd" d="M26.7485 -2.39062L28.4472 0.0821185L-0.691839 20.0996L-2.39053 17.6269L26.7485 -2.39062ZM27.0567 -0.1759L26.4905 -1.00015L-1.00005 17.8849L-0.433821 18.7091L27.0567 -0.1759Z" fill="white"/>
<path d="M11 0H15V7H26V11H15V18H11V11H0V7H11V0Z" fill="#FF4F60"/>
<path fill-rule="evenodd" clip-rule="evenodd" d="M10 -1H16V6H27V12H16V19H10V12H-1V6H10V-1ZM11 7H0V11H11V18H15V11H26V7H15V0H11V7Z" fill="white"/>
</g>
<defs>
<clipPath id="clip0">
<rect width="26" height="18" fill="white"/>
</clipPath>
</defs>
</svg>
