<svg width="22" height="22" viewBox="0 0 22 22" fill="none" xmlns="http://www.w3.org/2000/svg">
<path d="M18.6 4H2.95556C1.88 4 1.00978 4.825 1.00978 5.83333L1 16.8333C1 17.8417 1.88 18.6667 2.95556 18.6667H18.6C19.6756 18.6667 20.5556 17.8417 20.5556 16.8333V5.83333C20.5556 4.825 19.6756 4 18.6 4ZM18.2089 7.89583L11.296 11.9475C10.9831 12.1308 10.5724 12.1308 10.2596 11.9475L3.34667 7.89583C3.24862 7.84423 3.16277 7.77452 3.09429 7.69092C3.02582 7.60731 2.97615 7.51155 2.9483 7.40942C2.92044 7.3073 2.91498 7.20094 2.93224 7.09678C2.9495 6.99262 2.98913 6.89283 3.04872 6.80344C3.10831 6.71406 3.18663 6.63693 3.27893 6.57675C3.37124 6.51656 3.47561 6.47455 3.58573 6.45327C3.69585 6.432 3.80943 6.43189 3.9196 6.45295C4.02977 6.47402 4.13423 6.51582 4.22667 6.57583L10.7778 10.4167L17.3289 6.57583C17.4213 6.51582 17.5258 6.47402 17.636 6.45295C17.7461 6.43189 17.8597 6.432 17.9698 6.45327C18.0799 6.47455 18.1843 6.51656 18.2766 6.57675C18.3689 6.63693 18.4472 6.71406 18.5068 6.80344C18.5664 6.89283 18.6061 6.99262 18.6233 7.09678C18.6406 7.20094 18.6351 7.3073 18.6073 7.40942C18.5794 7.51155 18.5297 7.60731 18.4613 7.69092C18.3928 7.77452 18.3069 7.84423 18.2089 7.89583V7.89583Z" fill="#2A73FF"/>
</svg>
