<svg width="18" height="18" viewBox="0 0 18 18" fill="none" xmlns="http://www.w3.org/2000/svg">
<g clip-path="url(#clip0)">
<path d="M5.20271 3.37793C5.73034 3.37793 6.20734 3.4218 6.6444 3.51855C7.07527 3.6153 7.44709 3.76493 7.75759 3.97587C8.06527 4.1868 8.30546 4.46243 8.47815 4.8168C8.64521 5.16837 8.73296 5.60487 8.73296 6.11449C8.73296 6.66799 8.60415 7.1343 8.35215 7.50893C8.09734 7.88412 7.72496 8.1828 7.22434 8.42299C7.90384 8.6193 8.40784 8.96187 8.74196 9.45124C9.0789 9.94624 9.23977 10.538 9.23977 11.2209C9.23977 11.7834 9.14302 12.2637 8.93209 12.6682C8.72955 13.0723 8.43071 13.4204 8.0619 13.6818C7.70134 13.9428 7.27384 14.1301 6.8109 14.2561C6.34376 14.3822 5.86207 14.4463 5.37821 14.4468H-0.000976562V3.38412H5.20215L5.20271 3.37793ZM12.7059 12.4983C13.0338 12.8206 13.5086 12.9815 14.1268 12.9815C14.5689 12.9815 14.9503 12.8701 15.272 12.6446C15.5915 12.428 15.7816 12.1872 15.8581 11.9414H17.7976C17.4961 12.8994 17.0124 13.5907 16.374 14.0041C15.7355 14.4232 14.9621 14.6251 14.0655 14.6251C13.4355 14.6251 12.8758 14.5284 12.3605 14.3264C11.8753 14.1352 11.436 13.8436 11.0713 13.4709C10.7225 13.1047 10.4531 12.662 10.2624 12.1439C10.0717 11.6259 9.98115 11.0572 9.98115 10.4418C9.98115 9.83824 10.0835 9.28755 10.286 8.76893C10.4744 8.27094 10.7592 7.81504 11.1241 7.42737C11.496 7.04374 11.9212 6.7563 12.428 6.53074C12.932 6.30518 13.4771 6.20562 14.0919 6.20562C14.7748 6.20562 15.3603 6.3288 15.8761 6.59824C16.3663 6.84774 16.7924 7.20669 17.1215 7.6473C17.4528 8.08662 17.684 8.59343 17.8275 9.16493C17.9709 9.72743 18.0148 10.3192 17.9855 10.9492H12.2171C12.2171 11.5792 12.428 12.1737 12.7503 12.4961L12.689 12.5197L12.7059 12.4983ZM5.02384 12.536C5.26121 12.536 5.48959 12.5124 5.70334 12.4657C5.90597 12.4259 6.09965 12.3494 6.27484 12.2401C6.4329 12.1406 6.5679 11.9937 6.66746 11.8036C6.76421 11.6247 6.80809 11.3761 6.80809 11.0831C6.80809 10.5206 6.64384 10.1161 6.32771 9.87031C6.0054 9.63012 5.58634 9.50974 5.06209 9.50974H2.42846V12.5478H5.0244V12.5242L5.02384 12.536ZM15.231 8.2998C14.9643 8.00955 14.525 7.8543 13.9856 7.8543C13.6368 7.8543 13.3471 7.90999 13.1126 8.03318C12.8971 8.1384 12.7071 8.28927 12.5557 8.4753C12.4209 8.64099 12.3212 8.83237 12.2626 9.0378C12.2104 9.21145 12.177 9.39024 12.1631 9.57105H15.7344C15.6815 9.00855 15.4852 8.59568 15.2248 8.30262V8.31162L15.231 8.2998ZM4.8894 7.83687C5.32027 7.83687 5.67746 7.7373 5.95871 7.52918C6.23996 7.32724 6.37496 6.98693 6.37496 6.52455C6.37496 6.26693 6.32209 6.05599 6.23996 5.89174C6.14878 5.73463 6.01982 5.60277 5.86477 5.50812C5.69731 5.41115 5.51354 5.34557 5.32252 5.31462C5.11487 5.27533 4.90385 5.25668 4.69252 5.25893H2.42227V7.83687H4.8894ZM11.7125 4.1193H16.1889V5.20887H11.7125V4.1103V4.1193Z" fill="#333333"/>
</g>
<defs>
<clipPath id="clip0">
<rect width="18" height="18" fill="white"/>
</clipPath>
</defs>
</svg>
