<svg width="54" height="54" viewBox="0 0 54 54" fill="none" xmlns="http://www.w3.org/2000/svg">
<rect width="54" height="54" rx="10" fill="white" fill-opacity="0.06"/>
<path d="M37.0835 17.5997C36.8682 17.4138 36.6061 17.2903 36.3257 17.2427C36.0453 17.1951 35.7572 17.2251 35.4926 17.3294L17.4695 24.41C17.1554 24.5334 16.8897 24.7553 16.7122 25.0423C16.5346 25.3293 16.4548 25.6661 16.4846 26.0023C16.5144 26.3384 16.6523 26.6559 16.8776 26.9072C17.1028 27.1585 17.4034 27.3301 17.7343 27.3963L22.3124 28.3122V34.0302C22.3121 34.3394 22.4036 34.6416 22.5752 34.8988C22.7468 35.1559 22.9909 35.3563 23.2765 35.4746C23.5621 35.5929 23.8764 35.6238 24.1796 35.5634C24.4828 35.5029 24.7612 35.3539 24.9796 35.1351L27.5132 32.6016L31.3586 35.9854C31.6416 36.2368 32.007 36.3759 32.3856 36.3764C32.5502 36.3762 32.7137 36.3503 32.8703 36.2996C33.1285 36.2177 33.3608 36.0695 33.5439 35.8698C33.727 35.6701 33.8545 35.4258 33.9137 35.1615L37.587 19.133C37.651 18.8558 37.6379 18.5664 37.5491 18.2961C37.4603 18.0258 37.2993 17.785 37.0835 17.5998V17.5997ZM22.9126 26.8386L18.041 25.8643L31.6817 20.5053L22.9126 26.8386ZM23.8749 34.0294V29.3998L26.3378 31.567L23.8749 34.0294ZM32.3907 34.8123L24.3446 27.7317L35.931 19.3638L32.3907 34.8123Z" fill="#F9F9F9"/>
</svg>
