<svg width="29" height="33" viewBox="0 0 29 33" fill="none" xmlns="http://www.w3.org/2000/svg">
<path d="M10.7906 15.3867C11.0383 16.2996 10.4887 17.2387 9.56134 17.4855L9.33808 17.5443C8.41071 17.7883 7.45893 17.246 7.21037 16.3322L3.85339 3.98527C3.42766 2.50201 3.72052 1.10824 5.01034 0.731327L5.41618 0.638228C6.34265 0.393279 6.88498 1.02147 7.13264 1.93438L10.7906 15.3867ZM17.0626 16.202C16.889 17.1737 15.9481 17.8236 14.9611 17.6518L14.8824 17.6383C13.8963 17.4674 13.2374 16.5391 13.4118 15.5675L15.8396 2.00036C16.0132 1.0287 16.4841 0.36074 17.4702 0.531572L17.6881 0.597554C20.1918 1.1914 19.1532 4.51765 19.4895 2.63488L17.0626 16.202Z" fill="#E0AA94"/>
<path d="M7.43469 16.7321C7.66879 17.6061 7.15087 18.5046 6.27683 18.7396L5.94963 18.8272C5.07558 19.0614 4.17713 18.5434 3.94303 17.6694L1.04702 6.8645C0.813825 5.99046 1.33265 5.0911 2.20669 4.857L2.53299 4.76932C3.40703 4.53432 4.30548 5.05314 4.54049 5.92719L7.43469 16.7321ZM11.5509 14.6351C11.7941 15.539 11.2572 16.4681 10.3533 16.7104L10.1346 16.7691C9.23068 17.0114 8.3015 16.4745 8.05926 15.5706L4.49168 2.25566C4.24854 1.35178 4.78544 0.422603 5.68931 0.180365L5.90805 0.121614C6.81192 -0.120624 7.7411 0.416276 7.98424 1.32015L11.5509 14.6351ZM16.0649 15.7234C15.9022 16.6453 15.0236 17.2608 14.1016 17.0981L13.8793 17.0584C12.9573 16.8957 12.3418 16.0171 12.5045 15.0952L14.898 1.52171C15.0607 0.599762 15.9392 -0.0157748 16.8612 0.146922L17.0835 0.185789C18.0055 0.348486 18.621 1.22795 18.4592 2.1499L16.0649 15.7234ZM20.4956 16.6191C20.3438 17.4796 19.5249 18.0544 18.6635 17.9026L18.2188 17.824C17.3583 17.6721 16.7843 16.8523 16.9353 15.9918L19.2121 3.08541C19.364 2.22583 20.1838 1.65006 21.0434 1.80191L21.489 1.88055C22.3495 2.0324 22.9234 2.85312 22.7716 3.7127L20.4956 16.6191ZM23.5155 24.2532C23.0437 25.0694 21.9997 25.3496 21.1826 24.8778L21.0099 24.7774C20.1928 24.3056 19.9126 23.2616 20.3854 22.4454L25.4552 13.6616C25.927 12.8454 26.9719 12.5643 27.789 13.0361L27.9616 13.1365C28.7787 13.6074 29.058 14.6532 28.5862 15.4694L23.5155 24.2532V24.2532Z" fill="#F7DECE"/>
<path d="M2.95838 13.9925C3.31993 15.342 2.79297 18.6791 2.79297 21.2172C2.79297 23.7553 4.7137 32.0637 13.6394 32.0637C22.5652 32.0637 23.1301 24.6212 24.4859 22.4229C25.8417 20.2247 23.733 16.6608 22.6782 18.4685C21.6233 20.2763 20.0262 19.5197 20.5694 16.3218C21.1127 13.1239 17.7493 11.3831 17.2829 14.0224C16.887 16.2613 15.9832 15.6068 16.511 13.1971C17.038 10.7865 13.3348 10.1059 12.7356 13.3842C12.2954 15.7949 11.4231 14.1905 11.0625 12.8085C10.7019 11.4264 7.00953 11.3044 7.4913 13.4493C8.17914 16.5107 7.48678 17.1254 6.48438 13.3851C5.84806 11.0125 2.95838 13.9925 2.95838 13.9925V13.9925Z" fill="#F7DECE"/>
<path d="M21.2845 19.4227C21.3053 19.4209 21.326 19.4155 21.3468 19.4128C20.9952 19.3513 20.7024 19.016 20.5578 18.4131C18.825 18.6372 16.4126 19.0575 14.5425 20.8861C12.2322 23.1449 11.8381 25.5862 11.8571 27.2195C11.8724 28.5365 12.591 29.1601 12.8016 27.2087C13.0737 24.6823 14.9239 19.9415 21.2845 19.4227V19.4227Z" fill="#E0AA94"/>
</svg>
