<svg width="54" height="54" viewBox="0 0 54 54" fill="none" xmlns="http://www.w3.org/2000/svg">
<rect width="54" height="54" rx="10" fill="white" fill-opacity="0.06"/>
<path d="M36.382 21.562C35.4367 19.9237 34.0761 18.5636 32.4376 17.6187C30.7768 16.6512 28.9644 16.167 27.0003 16.167C25.0362 16.167 23.2238 16.6512 21.562 17.6187C19.9012 18.5861 18.5861 19.9012 17.6187 21.562C16.6512 23.2227 16.167 25.0362 16.167 27.0003C16.167 28.9644 16.6502 30.7779 17.6187 32.4387C18.5637 34.0772 19.9243 35.4374 21.5631 36.382C23.2238 37.3494 25.0362 37.8337 27.0003 37.8337C28.9644 37.8337 30.7768 37.3494 32.4387 36.382C34.0772 35.4371 35.4377 34.077 36.3831 32.4387C37.3505 30.7779 37.8337 28.9644 37.8337 27.0003C37.8337 25.0362 37.3505 23.2227 36.382 21.562ZM27.0003 17.9653C29.167 17.9653 31.0867 18.6587 32.7637 20.0442C31.767 21.3161 30.2872 22.3626 28.322 23.1859C27.2365 21.2218 26.06 19.5817 24.7892 18.2676C25.5094 18.0684 26.2531 17.9668 27.0003 17.9653V17.9653ZM19.9695 21.367C20.7617 20.361 21.764 19.5402 22.9064 18.962C24.2194 20.2631 25.4252 21.887 26.5247 23.837C24.3581 24.487 22.0679 24.812 19.6553 24.812C19.0346 24.812 18.5655 24.7979 18.247 24.7687C18.579 23.5276 19.1656 22.3691 19.9695 21.367V21.367ZM17.9653 27.0003C17.9653 26.9418 17.9686 26.8703 17.9762 26.7837C17.9837 26.697 17.987 26.6255 17.987 26.567C18.2622 26.5822 18.6814 26.5887 19.2447 26.5887C22.1329 26.5887 24.8196 26.1911 27.3037 25.397C27.5062 25.8011 27.7164 26.2561 27.932 26.762C26.502 27.0794 25.0352 27.8518 23.5326 29.0803C22.03 30.3088 20.9337 31.6012 20.2403 32.9587C18.7237 31.2394 17.9653 29.2537 17.9653 27.0003V27.0003ZM27.0003 36.0353C24.9485 36.0353 23.1068 35.3994 21.4742 34.1297C22.1253 32.8438 23.1252 31.6142 24.4762 30.4453C25.826 29.2753 27.1661 28.5462 28.4953 28.257C29.3338 30.5742 29.9009 32.9808 30.1853 35.4287C29.1701 35.8254 28.0903 36.031 27.0003 36.0353V36.0353ZM34.6703 31.7453C33.9612 32.8877 33.0064 33.8577 31.8753 34.5847C31.6153 32.3314 31.117 30.1355 30.3814 27.997C31.3911 27.9255 32.2935 27.8887 33.0897 27.8887C33.9553 27.8887 34.9162 27.9255 35.9703 27.997C35.8289 29.3293 35.3842 30.6115 34.6703 31.7453ZM33.327 26.3287C32.0703 26.3287 30.9079 26.3796 29.8387 26.4803C29.6122 25.8875 29.3665 25.3022 29.102 24.7253C31.3402 23.7438 32.9283 22.5522 33.8676 21.1503C35.1676 22.6822 35.8761 24.4296 35.9909 26.3937C35.1112 26.3503 34.2229 26.3287 33.327 26.3287V26.3287Z" fill="#F9F9F9"/>
</svg>
