<svg width="54" height="54" viewBox="0 0 54 54" fill="none" xmlns="http://www.w3.org/2000/svg">
<rect width="54" height="54" rx="10" fill="white" fill-opacity="0.06"/>
<path d="M23.7301 26.563C24.4464 26.9063 25.0135 27.3987 25.4313 28.0404C25.8641 28.6821 26.0804 29.4208 26.0804 30.2564C26.0804 31.51 25.6402 32.562 24.7598 33.4126C23.8793 34.2632 22.8049 34.6885 21.5364 34.6885H14.7764V19.0195H21.044C22.2676 19.0195 23.3048 19.4299 24.1554 20.2507C25.006 21.0714 25.4313 22.0862 25.4313 23.2949C25.4313 24.6828 24.8642 25.7721 23.7301 26.563ZM21.044 20.967H16.8581V25.7572H21.044C21.7006 25.7572 22.2527 25.5259 22.7004 25.0633C23.1481 24.6007 23.3719 24.0336 23.3719 23.3621C23.3719 22.7055 23.1406 22.1459 22.678 21.6833C22.2303 21.2057 21.6857 20.967 21.044 20.967ZM21.5364 32.7411C22.2378 32.7411 22.8273 32.4949 23.3048 32.0024C23.7823 31.51 24.0211 30.9056 24.0211 30.1893C24.0211 29.4879 23.7749 28.891 23.2824 28.3986C22.8049 27.9061 22.2229 27.6599 21.5364 27.6599H16.8581V32.7411H21.5364Z" fill="#F9F9F9"/>
<path d="M29.7775 29.9878C29.9715 30.9877 30.4267 31.7637 31.143 32.3158C31.8742 32.8679 32.7696 33.144 33.8291 33.144C35.3064 33.144 36.3809 32.5993 37.0524 31.51L38.7089 32.4501C37.6195 34.1364 35.978 34.9795 33.7843 34.9795C32.0085 34.9795 30.561 34.4274 29.4418 33.3231C28.3375 32.2039 27.7853 30.7937 27.7853 29.0925C27.7853 27.4062 28.33 26.0034 29.4194 24.8842C30.5087 23.765 31.9189 23.2054 33.65 23.2054C35.2915 23.2054 36.6271 23.7874 37.6568 24.9514C38.7014 26.1004 39.2237 27.4883 39.2237 29.1148C39.2237 29.3984 39.2013 29.6894 39.1565 29.9878H29.7775ZM33.65 25.0409C32.6054 25.0409 31.7399 25.3394 31.0534 25.9363C30.367 26.5183 29.9417 27.3017 29.7775 28.2866H37.2539C37.0897 27.2271 36.6719 26.4213 36.0004 25.8691C35.3288 25.317 34.5454 25.0409 33.65 25.0409Z" fill="#F9F9F9"/>
<path d="M29.7393 21.0986H36.9342" stroke="#F9F9F9" stroke-width="2"/>
</svg>
